<svg 
 xmlns="http://www.w3.org/2000/svg"
 xmlns:xlink="http://www.w3.org/1999/xlink"
 width="21px" height="20px">
<path fill-rule="evenodd"  fill="rgb(255, 184, 28)"
 d="M16.078,19.491 C16.516,19.498 16.877,19.157 16.884,18.728 C16.885,18.672 16.879,18.615 16.868,18.560 L15.641,12.716 L20.142,8.692 C20.464,8.402 20.486,7.910 20.190,7.595 C20.061,7.457 19.885,7.370 19.695,7.349 L13.641,6.684 L11.123,1.251 C10.944,0.860 10.474,0.687 10.075,0.862 C9.898,0.940 9.757,1.078 9.678,1.251 L7.160,6.684 L1.106,7.349 C0.671,7.397 0.358,7.781 0.407,8.207 C0.429,8.393 0.518,8.565 0.659,8.692 L5.160,12.716 L3.933,18.560 C3.846,18.980 4.122,19.390 4.551,19.476 C4.739,19.514 4.936,19.483 5.103,19.390 L10.400,16.441 L15.698,19.390 C15.814,19.454 15.945,19.489 16.078,19.491 Z"/>
</svg>