<?xml version="1.0" encoding="UTF-8" standalone="no"?>
<svg
   xmlns:dc="http://purl.org/dc/elements/1.1/"
   xmlns:cc="http://creativecommons.org/ns#"
   xmlns:rdf="http://www.w3.org/1999/02/22-rdf-syntax-ns#"
   xmlns:svg="http://www.w3.org/2000/svg"
   xmlns="http://www.w3.org/2000/svg"
   xmlns:sodipodi="http://sodipodi.sourceforge.net/DTD/sodipodi-0.dtd"
   xmlns:inkscape="http://www.inkscape.org/namespaces/inkscape"
   width="20"
   height="20"
   version="1.1"
   id="svg4"
   sodipodi:docname="ico-estrella.svg"
   inkscape:version="0.92.1 r15371">
  <metadata
     id="metadata10">
    <rdf:RDF>
      <cc:Work
         rdf:about="">
        <dc:format>image/svg+xml</dc:format>
        <dc:type
           rdf:resource="http://purl.org/dc/dcmitype/StillImage" />
        <dc:title></dc:title>
      </cc:Work>
    </rdf:RDF>
  </metadata>
  <defs
     id="defs8" />
  <sodipodi:namedview
     pagecolor="#ffffff"
     bordercolor="#666666"
     borderopacity="1"
     objecttolerance="10"
     gridtolerance="10"
     guidetolerance="10"
     inkscape:pageopacity="0"
     inkscape:pageshadow="2"
     inkscape:window-width="1920"
     inkscape:window-height="1018"
     id="namedview6"
     showgrid="false"
     inkscape:zoom="10.26087"
     inkscape:cx="12"
     inkscape:cy="11.5"
     inkscape:window-x="-8"
     inkscape:window-y="-8"
     inkscape:window-maximized="1"
     inkscape:current-layer="svg4" />
  <path
     style="fill:#ffffff"
     d="M 0 0 L 0 20 L 20 20 L 20 0 L 0 0 z M 9.9570312 1.4375 C 10.236755 1.4307934 10.507339 1.5860162 10.628906 1.8515625 L 12.908203 6.7714844 L 18.390625 7.3730469 C 18.562675 7.3920629 18.72303 7.4707403 18.839844 7.5957031 C 19.10788 7.8818502 19.086503 8.3252873 18.794922 8.5878906 L 14.71875 12.232422 L 15.830078 17.525391 C 15.840068 17.576101 15.846608 17.627024 15.845703 17.677734 C 15.839364 18.066205 15.511855 18.373487 15.115234 18.367188 C 14.994798 18.365377 14.876526 18.334251 14.771484 18.275391 L 9.9746094 15.605469 L 5.1777344 18.275391 C 5.0265111 18.359561 4.8479738 18.387926 4.6777344 18.353516 C 4.2892627 18.276547 4.0384065 17.905713 4.1171875 17.525391 L 5.2285156 12.232422 L 1.1523438 8.5878906 C 1.0246641 8.473794 0.94570289 8.3188188 0.92578125 8.1503906 C 0.88141037 7.7646355 1.1646889 7.4165122 1.5585938 7.3730469 L 7.0390625 6.7714844 L 9.3203125 1.8515625 C 9.3918492 1.6958116 9.5194089 1.5697256 9.6796875 1.5 C 9.7700141 1.4599304 9.8637901 1.4397355 9.9570312 1.4375 z "
     id="rect3682" />
</svg>
