<svg 
 xmlns="http://www.w3.org/2000/svg"
 xmlns:xlink="http://www.w3.org/1999/xlink"
 width="24px" height="23px">
<path fill-rule="evenodd"  stroke="rgb(203, 196, 188)" stroke-width="2px" stroke-linecap="butt" stroke-linejoin="miter" fill="none"
 d="M17.078,20.491 C17.516,20.498 17.877,20.157 17.884,19.728 C17.885,19.672 17.879,19.616 17.868,19.560 L16.641,13.716 L21.142,9.691 C21.464,9.401 21.486,8.911 21.190,8.595 C21.061,8.457 20.885,8.370 20.695,8.349 L14.641,7.684 L12.123,2.251 C11.944,1.860 11.474,1.686 11.075,1.863 C10.898,1.940 10.757,2.079 10.678,2.251 L8.160,7.684 L2.106,8.349 C1.671,8.397 1.358,8.781 1.407,9.207 C1.429,9.393 1.518,9.565 1.659,9.691 L6.160,13.716 L4.933,19.560 C4.846,19.980 5.122,20.390 5.551,20.475 C5.739,20.513 5.936,20.482 6.103,20.389 L11.400,17.441 L16.698,20.389 C16.814,20.454 16.945,20.489 17.078,20.491 Z"/>
</svg>