<svg version="1.1" xmlns="http://www.w3.org/2000/svg" x="0" y="0" width="28" height="28" viewBox="0 0 28 28" enable-background="new 0 0 28 28" xml:space="preserve"><path fill="#CCCCCC" d="M23 26.5H5c-1.9 0-3.5-1.6-3.5-3.5V5C1.5 3 3 1.5 5 1.5h18c1.9 0 3.5 1.6 3.5 3.5v18C26.5 24.9 24.9 26.5 23 26.5zM5 2.5C3.6 2.5 2.5 3.6 2.5 5v18c0 1.4 1.1 2.5 2.5 2.5h18c1.3 0 2.5-1.2 2.5-2.5V5c0-1.4-1.1-2.5-2.5-2.5H5z"/><path fill="#E35E24" d="M23.7 7.9c-0.4-0.4-1.1-0.4-1.6 0L12 17.9l-6.1-6.2c-0.4-0.4-1.1-0.4-1.6 0 -0.4 0.4-0.4 1.1 0 1.6 0 0 6.4 6.4 6.8 6.8s1.4 0.4 1.8 0S23.7 9.4 23.7 9.4C24.1 9 24.1 8.3 23.7 7.9z"/></svg>
