<svg version="1.1" xmlns="http://www.w3.org/2000/svg" x="0" y="0" width="28" height="28" viewBox="0 0 28 28" enable-background="new 0 0 28 28" xml:space="preserve"><path fill="#FFFFFF" d="M25 24h-7c0 2.2-1.8 4-4 4s-4-1.8-4-4H3c-1.1 0-2-0.9-2-2 2.3-2 5-5.5 5-13 0-3 2.5-6.3 6.6-6.9 -0.1-0.2-0.1-0.4-0.1-0.6C12.5 0.7 13.2 0 14 0s1.5 0.7 1.5 1.5c0 0.2 0 0.4-0.1 0.6C19.5 2.7 22 6 22 9c0 7.5 2.7 11 5 13C27 23.1 26.1 24 25 24zM24.2 22C21.4 18.8 20 14.6 20 9c0-2-1.9-5-6-5S8 7 8 9c0 5.6-1.4 9.8-4.2 13H24.2zM14 26.3c-1.2 0-2.3-1-2.3-2.3 0-0.1-0.1-0.3-0.2-0.3s-0.2 0.1-0.2 0.3c0 1.5 1.2 2.7 2.7 2.7 0.1 0 0.3-0.1 0.3-0.2S14.1 26.3 14 26.3z"/></svg>