<?xml version="1.0" encoding="utf-8"?>
<!-- Generator: Adobe Illustrator 18.0.0, SVG Export Plug-In . SVG Version: 6.00 Build 0)  -->
<!DOCTYPE svg PUBLIC "-//W3C//DTD SVG 1.1//EN" "http://www.w3.org/Graphics/SVG/1.1/DTD/svg11.dtd">
<svg version="1.1" id="Capa_1" xmlns="http://www.w3.org/2000/svg" xmlns:xlink="http://www.w3.org/1999/xlink" x="0px" y="0px"
	 width="28px" height="28px" viewBox="0 0 28 28" enable-background="new 0 0 28 28" xml:space="preserve">
<radialGradient id="SVGID_1_" cx="14" cy="14" r="14" gradientUnits="userSpaceOnUse">
	<stop  offset="0" style="stop-color:#F2A21E"/>
	<stop  offset="1" style="stop-color:#E35E24"/>
</radialGradient>
<rect fill="url(#SVGID_1_)" width="28" height="28"/>
<path fill="#FFFFFF" d="M17.8,22.7V7.6c0-0.5-0.3-0.8-0.8-0.8h-1.9V6.5c0-0.4-0.3-0.8-0.8-0.8V4.5C14.5,4.2,14.2,4,14,4
	s-0.5,0.2-0.5,0.5v1.3c-0.4,0-0.8,0.4-0.8,0.8v0.3h-1.8c-0.5,0-0.8,0.3-0.8,0.8v15H8.6V24h10.8v-1.3H17.8z M14.6,9.9h1.6v2.3h-1.6
	V9.9z M14.6,13.8h1.6v2.3h-1.6V13.8z M14.6,17.7h1.6V20h-1.6V17.7z M11.8,9.9h1.6v2.3h-1.6V9.9z M11.8,13.8h1.6v2.3h-1.6V13.8z
	 M11.8,17.7h1.6V20h-1.6V17.7z"/>
</svg>
