<svg version="1.1" id="Capa_1" xmlns="http://www.w3.org/2000/svg" xmlns:xlink="http://www.w3.org/1999/xlink" x="0" y="0" width="28" height="28" viewBox="0 0 28 28" enable-background="new 0 0 28 28" xml:space="preserve">
  <path fill="#FFFFFF" d="M19 25.3V5.7c0-0.6-0.4-1-1-1h-2.5V4.3c0-0.5-0.4-1-1-1V1.6C14.6 1.3 14.3 1 14 1s-0.6 0.3-0.6 0.6v1.7c-0.5 0-1 0.5-1 1v0.4H10c-0.6 0-1 0.4-1 1v19.5H7V27h14v-1.7H19zM14.8 8.7h2.1v3h-2.1V8.7zM14.8 13.7h2.1v3h-2.1V13.7zM14.8 18.8h2.1v3h-2.1V18.8zM11.1 8.7h2.1v3h-2.1V8.7zM11.1 13.7h2.1v3h-2.1V13.7zM11.1 18.8h2.1v3h-2.1V18.8z"/>
</svg>
