<svg version="1.1" id="Layer_1" xmlns="http://www.w3.org/2000/svg" x="0" y="0" width="28" height="28" viewBox="0 486 28 28" enable-background="new 0 486 28 28" xml:space="preserve"><path fill="#231F20" d="M26.8 512H1.2c-0.6 0-1.2-0.6-1.2-1.2l0 0c0-0.6 0.6-1.2 1.2-1.2h25.6c0.6 0 1.2 0.6 1.2 1.2l0 0C28 511.4 27.4 512 26.8 512z"/><path fill="#7E8082" d="M26.8 501.2H1.2c-0.6 0-1.2-0.6-1.2-1.2l0 0c0-0.6 0.6-1.2 1.2-1.2h25.6c0.6 0 1.2 0.6 1.2 1.2l0 0C28 500.6 27.4 501.2 26.8 501.2z"/><path fill="#E35E24" d="M26.8 490.4H1.2c-0.6 0-1.2-0.6-1.2-1.2l0 0c0-0.6 0.6-1.2 1.2-1.2h25.6c0.6 0 1.2 0.6 1.2 1.2l0 0C28 490 27.4 490.4 26.8 490.4z"/></svg>