<?xml version="1.0" encoding="utf-8"?>
<!-- Generator: Adobe Illustrator 18.0.0, SVG Export Plug-In . SVG Version: 6.00 Build 0)  -->
<!DOCTYPE svg PUBLIC "-//W3C//DTD SVG 1.1//EN" "http://www.w3.org/Graphics/SVG/1.1/DTD/svg11.dtd">
<svg version="1.1" id="Capa_1" xmlns="http://www.w3.org/2000/svg" xmlns:xlink="http://www.w3.org/1999/xlink" x="0px" y="0px"
	 width="28px" height="28px" viewBox="0 0 28 28" enable-background="new 0 0 28 28" xml:space="preserve">
<g>
	<path fill="#7E8082" d="M9.9,22.1h10.6v2.4c0,0.7-0.2,1.3-0.7,1.7s-1,0.7-1.7,0.7H3.4c-0.7,0-1.3-0.2-1.7-0.7S1,25.2,1,24.6V9.9
		c0-0.7,0.2-1.3,0.7-1.7c0.5-0.5,1-0.7,1.7-0.7h2.4v10.6c0,1.1,0.4,2.1,1.2,2.9S8.8,22.1,9.9,22.1z M24.6,1H9.9
		C9.3,1,8.7,1.2,8.2,1.7c-0.5,0.5-0.7,1-0.7,1.7v14.6c0,0.7,0.2,1.3,0.7,1.7c0.5,0.5,1,0.7,1.7,0.7h14.6c0.7,0,1.3-0.2,1.7-0.7
		s0.7-1,0.7-1.7V3.4c0-0.7-0.2-1.3-0.7-1.7S25.2,1,24.6,1z"/>
</g>
</svg>
