<?xml version="1.0" encoding="utf-8"?>
<!-- Generator: Adobe Illustrator 18.0.0, SVG Export Plug-In . SVG Version: 6.00 Build 0)  -->
<!DOCTYPE svg PUBLIC "-//W3C//DTD SVG 1.1//EN" "http://www.w3.org/Graphics/SVG/1.1/DTD/svg11.dtd">
<svg version="1.1" id="Capa_7" xmlns="http://www.w3.org/2000/svg" xmlns:xlink="http://www.w3.org/1999/xlink" x="0px" y="0px"
	 width="16px" height="16px" viewBox="0 0 16 16" enable-background="new 0 0 16 16" xml:space="preserve">
<path fill="#999999" d="M14.53,9.8v3.27c0,1.62-1.32,2.94-2.94,2.94H4.41c-1.62,0-2.94-1.32-2.94-2.94V9.8
	c0-0.17,0.15-0.33,0.33-0.33c0.29,0,0.98-0.13,0.98,0.33v3.27c0,0.9,0.73,1.63,1.63,1.63h7.18c0.9,0,1.63-0.73,1.63-1.63v-2.94
	c0-0.26-0.05-0.65,0.33-0.65C13.84,9.47,14.53,9.34,14.53,9.8z M7.54,11.89L1.99,6.34C1.87,6.21,1.8,6.05,1.8,5.88
	c0-0.36,0.3-0.65,0.65-0.65h2.94V0.65C5.39,0.3,5.68,0,6.04,0h3.92c0.36,0,0.65,0.3,0.65,0.65v4.57h2.94c0.36,0,0.65,0.3,0.65,0.65
	c0,0.17-0.07,0.34-0.19,0.46l-5.55,5.55c-0.12,0.13-0.29,0.2-0.46,0.2S7.66,12.01,7.54,11.89z"/>
</svg>
