<?xml version="1.0" encoding="utf-8"?>
<!-- Generator: Adobe Illustrator 18.0.0, SVG Export Plug-In . SVG Version: 6.00 Build 0)  -->
<!DOCTYPE svg PUBLIC "-//W3C//DTD SVG 1.1//EN" "http://www.w3.org/Graphics/SVG/1.1/DTD/svg11.dtd">
<svg version="1.1" id="Capa_1" xmlns="http://www.w3.org/2000/svg" xmlns:xlink="http://www.w3.org/1999/xlink" x="0px" y="0px"
	 width="16px" height="16px" viewBox="0 0 16 16" enable-background="new 0 0 16 16" xml:space="preserve">
<g>
	<path fill="#A9A9AA" d="M15.75,6.75l-3.49,3.4l0.83,4.81c0.01,0.07,0.01,0.13,0.01,0.19c0,0.26-0.11,0.48-0.39,0.48
		c-0.13,0-0.27-0.05-0.39-0.12L8,13.24l-4.32,2.27c-0.12,0.07-0.25,0.12-0.38,0.12c-0.28,0-0.4-0.23-0.4-0.48
		c0-0.07,0.01-0.13,0.02-0.19l0.83-4.81l-3.5-3.4C0.12,6.62,0,6.46,0,6.28c0-0.29,0.3-0.4,0.54-0.44l4.83-0.7l2.16-4.37
		C7.61,0.58,7.78,0.37,8,0.37c0.22,0,0.39,0.21,0.47,0.39l2.16,4.37l4.83,0.7C15.69,5.88,16,5.99,16,6.28
		C16,6.46,15.87,6.62,15.75,6.75z M13.87,6.86l-4.06-0.6L8,2.59L6.18,6.26l-4.06,0.6l2.94,2.86l-0.7,4.05L8,11.85l3.62,1.91
		l-0.69-4.05L13.87,6.86z"/>
</g>
<g>
</g>
<g>
</g>
<g>
</g>
<g>
</g>
<g>
</g>
<g>
</g>
</svg>
