<svg version="1.1" xmlns="http://www.w3.org/2000/svg" x="0" y="0" width="16" height="16" viewBox="0 0 16 16" enable-background="new 0 0 16 16" xml:space="preserve"><path fill="#E35E24" d="M8 16c-4.4 0-8-3.6-8-8s3.6-8 8-8 8 3.6 8 8S12.4 16 8 16zM13.2 7.5l-0.9-0.9L8.5 2.8C8.4 2.7 8.2 2.6 8 2.6c-0.2 0-0.3 0.1-0.5 0.2L6.6 3.8C6.5 3.9 6.4 4.1 6.4 4.2S6.5 4.6 6.6 4.7l2 2H3.3c-0.4 0-0.7 0.3-0.7 0.7v1.3c0 0.4 0.3 0.7 0.7 0.7h5.2L6.6 11.3c-0.1 0.1-0.2 0.3-0.2 0.5s0.1 0.3 0.2 0.5l1 1c0.1 0.1 0.3 0.2 0.5 0.2s0.3-0.1 0.5-0.2l3.8-3.8 1-0.9c0.1-0.1 0.2-0.3 0.2-0.5S13.3 7.7 13.2 7.5z"/></svg>