<?xml version="1.0" encoding="utf-8"?>
<!-- Generator: Adobe Illustrator 18.0.0, SVG Export Plug-In . SVG Version: 6.00 Build 0)  -->
<!DOCTYPE svg PUBLIC "-//W3C//DTD SVG 1.1//EN" "http://www.w3.org/Graphics/SVG/1.1/DTD/svg11.dtd">
<svg version="1.1" id="Capa_1" xmlns="http://www.w3.org/2000/svg" xmlns:xlink="http://www.w3.org/1999/xlink" x="0px" y="0px"
	 width="28px" height="28px" viewBox="0 0 28 28" enable-background="new 0 0 28 28" xml:space="preserve">
<g>
	<g>
		<path fill="#E35E24" d="M14.33,24.74c-1.32,0-2.62-0.25-3.86-0.75c-1.24-0.5-2.36-1.22-3.33-2.15c-0.19-0.18-0.51-0.18-0.7,0.01
			l-1.7,1.7c-0.14,0.14-0.36,0.18-0.54,0.11c-0.19-0.08-0.31-0.26-0.31-0.46v-6.13c0-0.28,0.22-0.5,0.5-0.5h6.12
			c0.2,0,0.38,0.12,0.46,0.31c0.08,0.19,0.03,0.4-0.11,0.54l-1.82,1.82c-0.1,0.1-0.15,0.23-0.15,0.36c0,0.14,0.06,0.27,0.16,0.36
			c0.72,0.67,1.55,1.2,2.46,1.56c2.17,0.87,4.65,0.7,6.69-0.44c1.17-0.66,2.13-1.57,2.83-2.72c0.05-0.08,0.17-0.27,0.69-1.48
			c0.08-0.18,0.26-0.3,0.46-0.3h1.67c0.16,0,0.31,0.07,0.4,0.2c0.09,0.13,0.12,0.29,0.08,0.44c-0.64,2.15-1.78,3.86-3.48,5.25
			C18.99,24,16.85,24.74,14.33,24.74z M24.39,11.9h-6.12c-0.2,0-0.38-0.12-0.46-0.31s-0.04-0.4,0.11-0.54l1.83-1.83
			c0.1-0.1,0.15-0.23,0.15-0.36c0-0.14-0.06-0.27-0.16-0.36c-1.5-1.39-3.3-2.1-5.34-2.1c-1.36,0-2.65,0.33-3.82,1
			c-1.18,0.66-2.13,1.57-2.83,2.72c-0.08,0.13-0.23,0.4-0.69,1.48c-0.08,0.18-0.26,0.3-0.46,0.3H4.81c-0.16,0-0.31-0.08-0.4-0.2
			c-0.09-0.13-0.12-0.29-0.08-0.44c0.65-2.15,1.8-3.86,3.5-5.25c1.88-1.53,4.03-2.27,6.56-2.27c1.32,0,2.63,0.26,3.88,0.76
			c1.27,0.51,2.36,1.21,3.35,2.14c0.19,0.18,0.51,0.17,0.7-0.01l1.72-1.71c0.14-0.14,0.36-0.18,0.54-0.11
			c0.19,0.08,0.31,0.26,0.31,0.46v6.13C24.89,11.68,24.67,11.9,24.39,11.9z"/>
	</g>
</g>
</svg>
