<?xml version="1.0" encoding="utf-8"?>
<!-- Generator: Adobe Illustrator 18.0.0, SVG Export Plug-In . SVG Version: 6.00 Build 0)  -->
<!DOCTYPE svg PUBLIC "-//W3C//DTD SVG 1.1//EN" "http://www.w3.org/Graphics/SVG/1.1/DTD/svg11.dtd">
<svg version="1.1" id="Capa_1" xmlns="http://www.w3.org/2000/svg" xmlns:xlink="http://www.w3.org/1999/xlink" x="0px" y="0px"
	 width="28px" height="28px" viewBox="0 0 28 28" enable-background="new 0 0 28 28" xml:space="preserve">
<g>
	<path fill="#9AAE04" d="M24.31,7.81C24.77,8.27,25,8.83,25,9.48v13.16c0,0.65-0.23,1.21-0.69,1.67S23.3,25,22.64,25H5.36
		c-0.65,0-1.21-0.23-1.67-0.69S3,23.3,3,22.64V5.36C3,4.7,3.23,4.15,3.69,3.69S4.7,3,5.36,3h13.16c0.65,0,1.21,0.23,1.67,0.69
		L24.31,7.81z M22.35,22.64c0.07,0,0.13-0.03,0.2-0.1c0.07-0.07,0.1-0.13,0.1-0.2V9.58c0-0.07-0.03-0.13-0.1-0.2l-3.83-3.83v4.91
		c0,0.33-0.11,0.61-0.34,0.83c-0.23,0.23-0.51,0.34-0.83,0.34H8.89c-0.33,0-0.61-0.11-0.83-0.34c-0.23-0.23-0.34-0.51-0.34-0.83
		V5.36H5.65c-0.07,0-0.13,0.03-0.2,0.1c-0.07,0.07-0.1,0.13-0.1,0.2v16.7c0,0.07,0.03,0.13,0.1,0.2c0.07,0.07,0.13,0.1,0.2,0.1
		H22.35z M14,12.82c1.18,0,2.19,0.43,3.04,1.28s1.28,1.87,1.28,3.04s-0.43,2.19-1.28,3.04s-1.87,1.28-3.04,1.28
		s-2.19-0.43-3.04-1.28c-0.85-0.85-1.28-1.87-1.28-3.04s0.43-2.19,1.28-3.04C11.81,13.25,12.82,12.82,14,12.82z M16.36,5.36h-6.29
		v3.93h6.29V5.36z M14,19.11c0.56,0,1.02-0.19,1.4-0.56c0.38-0.38,0.56-0.84,0.56-1.4c0-0.56-0.19-1.02-0.56-1.4
		c-0.38-0.38-0.84-0.56-1.4-0.56s-1.02,0.19-1.4,0.56c-0.38,0.38-0.56,0.84-0.56,1.4c0,0.56,0.19,1.02,0.56,1.4
		C12.98,18.92,13.44,19.11,14,19.11z"/>
</g>
</svg>
