<?xml version="1.0" encoding="utf-8"?>
<!-- Generator: Adobe Illustrator 18.0.0, SVG Export Plug-In . SVG Version: 6.00 Build 0)  -->
<!DOCTYPE svg PUBLIC "-//W3C//DTD SVG 1.1//EN" "http://www.w3.org/Graphics/SVG/1.1/DTD/svg11.dtd">
<svg version="1.1" id="Capa_1" xmlns="http://www.w3.org/2000/svg" xmlns:xlink="http://www.w3.org/1999/xlink" x="0px" y="0px"
	 width="28px" height="28px" viewBox="0 0 28 28" enable-background="new 0 0 28 28" xml:space="preserve">
<g>
	<path fill="#7E8082" d="M24.75,14.85c-2.26,3.72-6.4,6.22-10.75,6.22s-8.5-2.52-10.75-6.22C3.1,14.59,3,14.31,3,14
		s0.1-0.59,0.25-0.85C5.5,9.45,9.64,6.93,14,6.93s8.5,2.52,10.75,6.22C24.9,13.41,25,13.69,25,14S24.9,14.59,24.75,14.85z
		 M18.75,9.67c0.49,0.83,0.75,1.79,0.75,2.76c0,3.03-2.47,5.5-5.5,5.5s-5.5-2.47-5.5-5.5c0-0.97,0.26-1.93,0.75-2.76
		C7.33,10.65,5.74,12.2,4.57,14c2.1,3.24,5.49,5.5,9.43,5.5s7.33-2.26,9.43-5.5C22.26,12.2,20.67,10.65,18.75,9.67z M14,8.7
		c-2.05,0-3.73,1.68-3.73,3.73c0,0.32,0.27,0.59,0.59,0.59s0.59-0.27,0.59-0.59c0-1.4,1.15-2.55,2.55-2.55
		c0.32,0,0.59-0.27,0.59-0.59C14.59,8.97,14.32,8.7,14,8.7z"/>
</g>
</svg>
