<svg version="1.1" xmlns="http://www.w3.org/2000/svg" x="0" y="0" width="28" height="28" viewBox="0 0 28 28" enable-background="new 0 0 28 28" xml:space="preserve"><path fill="#7E8082" d="M27.17 25.53l-7.52-7.52c1.6-1.82 2.51-4.33 2.51-7.07C22.16 4.79 17.15 0 11.22 0S0.28 5.01 0.28 10.94c0 6.15 5.01 10.94 10.94 10.94 2.28 0 4.56-0.68 6.38-2.05l7.52 7.52c0.46 0.46 1.27 1 2.05 0.34l0.23-0.23C27.96 26.95 27.73 26.06 27.17 25.53zM2.78 10.94c0-4.79 3.87-8.43 8.43-8.43 4.79 0 8.43 3.88 8.43 8.43 0 4.79-3.87 8.43-8.43 8.43C6.66 19.37 2.78 15.73 2.78 10.94z"/></svg>