<svg version="1.1" xmlns="http://www.w3.org/2000/svg" x="0" y="0" width="28" height="28" viewBox="0 0 28 28" enable-background="new 0 0 28 28" xml:space="preserve"><path fill="#FAFDFF" d="M10.94 13.46c0 0 0.34-1.14-0.19-1.82 -0.32-0.37-0.62-0.84-0.78-2.07C9.78 9.56 8.74 9.51 8.8 7.27 8.74 6.59 9.29 6.55 9.29 6.55s-0.33-3.82 0.83-4.86c1.08-0.97 1.31-0.71 1.31-0.71s1.39-1.2 3.28-0.95 3.01 0.94 3.53 1.62c0.7 0.92 1.12 3.97 0.82 4.96 0.65 0 0.45 0.72 0.36 1.26 -0.08 0.5-0.48 1.59-1.01 1.65 -0.11 0.68 0.09 0.84-1 2.32 -0.26 0.8-0.08 1.66-0.08 1.66s0.55-0.05 0.8 0.5c0.28 0.21 0.29 0.8 0.75 1.07 0.35 0.43 3.18 0.09 4.26 1.83 1.35 2.19 2.17 8.2 2.17 8.2s-2.25 2-4.69 1.75c-1.89 1.35-5.51 1.12-6.51 1.15 -1.77-0.04-5.57-0.3-6.33-1.4 -0.62 0.2-4.32-0.06-4.93-1.31s1.04-7.94 2.87-9.14c1.82-1.2 3.06-0.58 3.4-1.12 0.34-0.28 0.13-0.47 0.47-0.84C10.33 13.37 10.94 13.46 10.94 13.46z"/></svg>